<?xml version="1.0" encoding="UTF-8"?>
<!DOCTYPE svg PUBLIC "-//W3C//DTD SVG 1.1//EN" "http://www.w3.org/Graphics/SVG/1.1/DTD/svg11.dtd">
<!-- Creator: CorelDRAW 2017 -->
<svg xmlns="http://www.w3.org/2000/svg" xml:space="preserve" width="24.0447mm" height="24.0805mm" version="1.1" style="shape-rendering:geometricPrecision; text-rendering:geometricPrecision; image-rendering:optimizeQuality; fill-rule:evenodd; clip-rule:evenodd"
viewBox="0 0 659.84 660.83"
 xmlns:xlink="http://www.w3.org/1999/xlink">
 <defs>
  <style type="text/css">
   <![CDATA[
    .fil0 {fill:#10C34D}
    .fil1 {fill:url(#id0)}
   ]]>
  </style>
  <linearGradient id="id0" gradientUnits="userSpaceOnUse" x1="96.28" y1="563.7" x2="563.56" y2="97.12">
   <stop offset="0" style="stop-opacity:1; stop-color:#00708A"/>
   <stop offset="0.509804" style="stop-opacity:1; stop-color:#00BABE"/>
   <stop offset="1" style="stop-opacity:1; stop-color:#9ACA3C"/>
  </linearGradient>
 </defs>
 <g id="Layer_x0020_1">
  <metadata id="CorelCorpID_0Corel-Layer"/>
  <g id="_2207944553936">
   <path class="fil0" d="M431.46 228.87l-107.97 133.79c-2.33,2.73 -4.71,4.78 -7.04,7.56 -6.09,7.29 -18.83,16.68 -14.46,28.01 2.86,7.43 9.87,9.28 17.61,12.21l83.79 32.15c16.66,4.46 25.71,-0.89 29.33,-17.78l47.98 -223.79c2.25,-8.79 7.37,-27 -7.66,-23.17 -5.52,1.41 -19.91,9.94 -25.42,12.99l-150.29 81.75c-32.6,17.8 -68.58,36.52 -100.04,54.44 -6.83,3.89 -20.61,9.51 -22.45,15.9 -2.83,9.84 13.75,13.91 20.83,16.54 27.24,10.12 48.56,22.94 75.18,0.55 3.67,-3.09 7.12,-5.77 10.78,-8.73l102.85 -88.04c10.03,-8.02 37.02,-31.27 46.99,-34.39z"/>
   <path class="fil0" d="M265.63 472.74c2.52,-2.23 24.32,-35.91 26.3,-40.83 8.78,-21.84 -17.71,-28.2 -31.06,-33.27 -5.51,-2.09 -21.65,-10.18 -23.39,0.31 -1.1,6.63 14.97,40.81 18.49,49.3 1.69,4.06 3.14,7.89 4.84,11.9 1.58,3.75 3.17,9.51 4.83,12.59z"/>
   <path class="fil1" d="M616.75 401.19c13.77,14.23 24.53,30.93 31.87,49.08 7.35,18.16 11.23,37.61 11.23,57.32 0,42.31 -17.15,80.62 -44.88,108.35 -27.73,27.73 -66.04,44.88 -108.35,44.88 -20.11,0 -39.98,-4.06 -58.5,-11.74 -18.64,-7.72 -35.62,-18.92 -49.85,-33.15l50.39 -50.39c7.83,7.83 16.84,13.85 26.46,17.84 9.73,4.03 20.43,6.17 31.5,6.17 22.64,0 43.13,-9.17 57.96,-24 14.83,-14.83 24,-35.32 24,-57.96 0,-10.8 -2.05,-21.27 -5.94,-30.87 -3.89,-9.62 -9.67,-18.55 -17.11,-26.25l51.23 -49.28zm-573.65 -141.56c-13.77,-14.23 -24.53,-30.93 -31.87,-49.08 -7.35,-18.16 -11.22,-37.61 -11.22,-57.32 0,-42.31 17.15,-80.62 44.88,-108.35 27.73,-27.73 66.04,-44.88 108.35,-44.88 20.12,0 39.98,4.06 58.5,11.73 18.64,7.73 35.62,18.92 49.85,33.15l-50.39 50.39c-7.83,-7.83 -16.84,-13.85 -26.46,-17.84 -9.74,-4.03 -20.43,-6.17 -31.5,-6.17 -22.64,0 -43.13,9.17 -57.96,24 -14.83,14.83 -24,35.32 -24,57.96 0,10.8 2.05,21.27 5.93,30.87 3.89,9.62 9.67,18.55 17.11,26.25l-51.23 49.28zm573.65 0c13.77,-14.23 24.53,-30.93 31.87,-49.08 7.35,-18.16 11.22,-37.61 11.22,-57.32 0,-42.31 -17.15,-80.62 -44.88,-108.35 -27.73,-27.73 -66.04,-44.88 -108.35,-44.88 -20.11,0 -39.98,4.06 -58.5,11.73 -18.64,7.73 -35.62,18.92 -49.85,33.15l50.39 50.39c7.83,-7.83 16.84,-13.85 26.46,-17.84 9.74,-4.03 20.43,-6.17 31.5,-6.17 22.64,0 43.13,9.17 57.96,24 14.83,14.83 24.01,35.32 24.01,57.96 0,10.8 -2.05,21.27 -5.94,30.87 -3.89,9.62 -9.67,18.55 -17.11,26.25l51.23 49.28zm-573.65 141.56c-13.77,14.23 -24.53,30.93 -31.87,49.08 -7.35,18.16 -11.23,37.61 -11.23,57.32 0,42.31 17.15,80.62 44.88,108.35 27.73,27.73 66.04,44.88 108.35,44.88 20.11,0 39.98,-4.06 58.5,-11.74 18.64,-7.72 35.62,-18.92 49.85,-33.15l-50.39 -50.39c-7.83,7.83 -16.84,13.85 -26.46,17.84 -9.74,4.03 -20.43,6.17 -31.5,6.17 -22.64,0 -43.13,-9.17 -57.96,-24 -14.83,-14.83 -24,-35.32 -24,-57.96 0,-10.8 2.05,-21.27 5.94,-30.87 3.89,-9.62 9.67,-18.55 17.11,-26.25l-51.23 -49.28z"/>
  </g>
 </g>
</svg>
