<?xml version="1.0" encoding="UTF-8"?>
<!DOCTYPE svg PUBLIC "-//W3C//DTD SVG 1.1//EN" "http://www.w3.org/Graphics/SVG/1.1/DTD/svg11.dtd">
<!-- Creator: CorelDRAW 2017 -->
<svg xmlns="http://www.w3.org/2000/svg" xml:space="preserve" width="69.9798mm" height="16.7864mm" version="1.1" style="shape-rendering:geometricPrecision; text-rendering:geometricPrecision; image-rendering:optimizeQuality; fill-rule:evenodd; clip-rule:evenodd"
viewBox="0 0 5616.35 1347.22"
 xmlns:xlink="http://www.w3.org/1999/xlink">
 <defs>
  <style type="text/css">
   <![CDATA[
    .fil0 {fill:#FEFEFE}
    .fil1 {fill:#FEFEFE;fill-rule:nonzero}
   ]]>
  </style>
 </defs>
 <g id="Layer_x0020_1">
  <metadata id="CorelCorpID_0Corel-Layer"/>
  <path class="fil0" d="M879.62 466.61l-220.11 272.75c-4.76,5.55 -9.61,9.74 -14.36,15.41 -12.42,14.86 -38.39,34 -29.48,57.09 5.84,15.14 20.13,18.92 35.9,24.89l170.82 65.54c33.96,9.1 52.41,-1.81 59.79,-36.25l97.82 -456.24c4.58,-17.91 15.02,-55.04 -15.63,-47.23 -11.25,2.87 -40.59,20.26 -51.83,26.49l-306.4 166.66c-66.46,36.29 -139.83,74.45 -203.96,110.99 -13.92,7.92 -42.01,19.38 -45.78,32.42 -5.78,20.05 28.04,28.36 42.47,33.72 55.53,20.64 99,46.77 153.27,1.14 7.5,-6.3 14.53,-11.77 21.99,-17.8l209.69 -179.49c20.44,-16.34 75.47,-63.75 95.79,-70.1z"/>
  <path class="fil0" d="M541.55 963.77c5.13,-4.56 49.58,-73.2 53.62,-83.24 17.9,-44.52 -36.1,-57.5 -63.33,-67.82 -11.24,-4.25 -44.14,-20.75 -47.69,0.63 -2.25,13.52 30.51,83.21 37.7,100.51 3.44,8.28 6.41,16.09 9.86,24.25 3.23,7.65 6.47,19.39 9.84,25.67z"/>
  <path class="fil0" d="M1257.37 817.9c28.06,29.02 50,63.07 64.96,100.06 14.98,37.02 22.89,76.68 22.89,116.85 0,86.26 -34.97,164.36 -91.51,220.9 -56.54,56.54 -134.63,91.51 -220.9,91.51 -41,0 -81.5,-8.28 -119.27,-23.92 -38.01,-15.75 -72.62,-38.58 -101.62,-67.58l102.73 -102.73c15.96,15.96 34.33,28.23 53.95,36.36 19.84,8.22 41.64,12.57 64.21,12.57 46.15,0 87.93,-18.7 118.16,-48.93 30.24,-30.24 48.94,-72.02 48.94,-118.17 0,-22.01 -4.18,-43.36 -12.1,-62.94 -7.93,-19.61 -19.71,-37.82 -34.89,-53.51l104.45 -100.47zm-1169.52 -288.59c-28.07,-29.01 -50.01,-63.06 -64.97,-100.06 -14.98,-37.03 -22.89,-76.67 -22.89,-116.86 0,-86.25 34.97,-164.36 91.51,-220.89 56.53,-56.54 134.64,-91.51 220.9,-91.51 41,0 81.49,8.28 119.27,23.92 38.01,15.75 72.62,38.57 101.63,67.58l-102.74 102.74c-15.96,-15.96 -34.33,-28.24 -53.94,-36.36 -19.86,-8.22 -41.65,-12.58 -64.22,-12.58 -46.16,0 -87.93,18.7 -118.16,48.94 -30.24,30.23 -48.94,72.01 -48.94,118.15 0,22.02 4.18,43.37 12.1,62.95 7.93,19.61 19.71,37.82 34.89,53.51l-104.44 100.47zm1169.51 0c28.07,-29.01 50.01,-63.06 64.97,-100.06 14.98,-37.03 22.88,-76.67 22.88,-116.86 0,-86.25 -34.96,-164.36 -91.5,-220.89 -56.54,-56.54 -134.64,-91.51 -220.9,-91.51 -41,0 -81.5,8.28 -119.27,23.92 -38.01,15.75 -72.62,38.57 -101.62,67.58l102.73 102.74c15.96,-15.96 34.32,-28.24 53.94,-36.36 19.85,-8.22 41.65,-12.58 64.22,-12.58 46.15,0 87.93,18.7 118.16,48.94 30.24,30.23 48.94,72.01 48.94,118.15 0,22.02 -4.18,43.37 -12.1,62.95 -7.93,19.61 -19.71,37.82 -34.89,53.51l104.44 100.47zm-1169.51 288.59c-28.06,29.02 -50,63.07 -64.96,100.06 -14.98,37.02 -22.89,76.68 -22.89,116.85 0,86.26 34.97,164.36 91.5,220.9 56.54,56.54 134.65,91.51 220.91,91.51 41,0 81.49,-8.28 119.27,-23.92 38.01,-15.75 72.62,-38.58 101.62,-67.58l-102.74 -102.73c-15.96,15.96 -34.32,28.23 -53.93,36.36 -19.86,8.22 -41.65,12.57 -64.22,12.57 -46.16,0 -87.94,-18.7 -118.17,-48.93 -30.23,-30.24 -48.93,-72.02 -48.93,-118.17 0,-22.01 4.18,-43.36 12.1,-62.94 7.93,-19.61 19.71,-37.82 34.89,-53.51l-104.45 -100.47z"/>
  <path class="fil1" d="M2180.6 157.62c-50.71,0 -83.52,22.37 -98.43,67.11l-338.53 946.98 222.21 0 67.11 -207.29 392.21 0 67.11 207.29 219.22 0 -363.88 -1014.09 -167.02 0zm46.23 204.31l140.18 430.99 -278.88 0 138.69 -430.99zm584.59 809.78l201.32 0 0 -410.11c0,-114.83 55.18,-172.99 165.54,-172.99l67.11 0 0 -205.8 -28.34 0c-263.96,0 -399.67,126.77 -405.63,381.78l0 407.13zm878.39 -800.83c-238.61,0 -357.92,135.71 -357.92,410.11 0,271.42 119.31,408.62 357.92,408.62 238.61,0 359.41,-137.2 359.41,-408.62 0,-274.41 -120.79,-410.11 -359.41,-410.11zm0 174.48c101.4,0 152.11,76.06 152.11,229.66 -1.49,156.59 -52.2,237.12 -153.6,237.12 -101.41,0 -153.6,-77.54 -155.1,-231.15 0,-156.59 52.19,-235.63 156.59,-235.63zm1127.44 626.36l0 -463.8c1.48,-225.19 -108.87,-337.04 -334.06,-337.04 -225.18,0 -338.52,111.85 -338.52,337.04l0 463.8 201.32 0 0 -504.06c1.49,-82.02 46.23,-122.3 134.22,-122.3 87.99,0 132.72,40.27 137.2,122.3l0 405.63c0,62.63 32.81,93.96 98.43,98.43l101.41 0zm785.92 -241.6l-146.16 0c-26.84,0 -49.21,8.95 -67.1,28.34 -38.78,37.28 -82.02,56.67 -128.26,56.67 -96.93,0 -149.12,-61.14 -156.59,-181.94l510.03 0c14.91,-308.7 -102.9,-462.3 -353.44,-462.3 -240.1,1.49 -360.9,135.71 -360.9,404.14 0,268.44 119.31,407.13 357.92,414.59 193.87,0 301.24,-92.46 344.49,-259.49zm-344.49 -396.68c85,0 134.21,53.68 146.15,158.08l-296.77 0c14.91,-104.4 65.62,-158.08 150.63,-158.08z"/>
 </g>
</svg>
