<?xml version="1.0" encoding="UTF-8"?>
<!DOCTYPE svg PUBLIC "-//W3C//DTD SVG 1.1//EN" "http://www.w3.org/Graphics/SVG/1.1/DTD/svg11.dtd">
<!-- Creator: CorelDRAW 2017 -->
<svg xmlns="http://www.w3.org/2000/svg" xml:space="preserve" width="20.0504mm" height="20.3933mm" version="1.1" style="shape-rendering:geometricPrecision; text-rendering:geometricPrecision; image-rendering:optimizeQuality; fill-rule:evenodd; clip-rule:evenodd"
viewBox="0 0 151.21 153.79"
 xmlns:xlink="http://www.w3.org/1999/xlink">
 <defs>
  <style type="text/css">
   <![CDATA[
    .str0 {stroke:white;stroke-width:6.38;stroke-miterlimit:22.9256}
    .fil0 {fill:none}
   ]]>
  </style>
 </defs>
 <g id="Layer_x0020_1">
  <metadata id="CorelCorpID_0Corel-Layer"/>
  <path class="fil0 str0" d="M74.44 13.63c7.54,-1.76 9.79,-2.24 17.15,-1.18 3.2,0.46 5.92,2.01 7.52,4.76 3.68,6.33 -0.54,13.91 -7.64,14.69 -5.12,0.56 -10.17,-3.87 -10.28,-8.74 1.29,-0.62 3.59,-0.61 5.22,-0.61 2.41,0 2.23,1.84 4.61,1.84 2.36,0 3.29,-3.8 -0.5,-5.64 -10.62,-5.17 -34.67,9.61 -41.95,14.18 -4.22,2.65 -8.47,5.98 -11.99,9.5 -12.71,12.71 0.33,18.72 0.87,12.89 0.18,-1.93 -1.4,-1.87 -1.4,-3.29 0,-1.79 3.12,-5.04 4.3,-5.84 5.2,3.48 4.91,11.13 0.9,15.33l-1.32 1.13c-8.7,6.36 -19.58,-3.55 -15.14,-12.99 0.64,-1.36 1.01,-1.71 1.66,-3.25 0.99,-2.37 2.41,-4.02 3.9,-5.93 0.91,-1.17 3.62,-3.89 4.74,-4.78 1.51,-1.21 4.24,-3.03 5.27,-4.56 -5.37,-0.79 -11.54,0.45 -16.37,2.37 -11.71,4.66 -20.8,16.99 -20.8,29.88 0,6.96 1.12,10.37 2.77,16.58l11.91 44.91c0.72,2.81 1.55,4.99 2.78,7.35 3.49,6.68 8.89,11.73 15.61,15.11 8.58,4.32 20.51,4.43 29.26,-0.12 11.52,-5.99 18.75,-18.05 18.75,-32.23 0,-6.22 -3.47,-15.99 -5.04,-22.3 -2.71,-10.94 -5.89,-21.29 -8.6,-32.25 -0.94,-3.81 -1.87,-7.2 -3.46,-10.36 -1.49,-2.96 -3.19,-5.93 -5.55,-8.27 -1.64,-1.63 -5.53,-5.47 -7.76,-6.06 0.21,-0.18 0.35,-0.32 0.68,-0.55 4.21,-2.98 9.25,-5.05 13.76,-7.43 0,4.54 -0.08,8.79 1.66,13.08 0.76,1.88 1.57,3.5 2.57,5.11 0.52,0.83 0.98,1.36 1.56,2.13 0.65,0.87 1.02,1.4 1.81,2.19 2.46,2.46 5.63,4.78 9.12,6.24 2.6,1.09 10.32,3.29 13.08,1.97 1.44,2.72 1.35,3.45 4.42,4.49 1.28,0.43 2.04,0.76 3.38,1.23 1.16,0.4 2.33,0.86 3.26,1.35 -0.34,0.7 -1.84,7.46 -1.84,8.6 0,2.63 8.86,1.49 8.71,4.23 -0.13,2.34 -2.03,4.95 -2.26,7.75 1.43,0.96 8.91,2.32 8.91,3.38 0,1.07 -0.66,3.56 -0.92,4.61 -0.72,2.94 -1.84,4.53 1.1,5.34 0.94,0.26 1.5,0.37 2.46,0.61 0.97,0.24 4.42,0.96 4.42,1.72 0,3.4 -4.25,7.81 -0.83,9.12l6.24 2.36c12.44,4.3 10.26,5.9 12.39,-9.66 0.9,-6.57 0.91,-4.64 -2.92,-11.17l-9.24 -16.25c-0.66,-1.2 -1.35,-2.12 -1.94,-3.28 -1.56,-3.03 -14.74,-25.15 -14.74,-26.11 0,-0.55 4.61,-7.78 4.61,-14.13 0,-5.24 -0.41,-9.44 -2.66,-13.93 -4.35,-8.69 -13.12,-15.56 -23.45,-15.56 -5.43,0 -10.43,0.98 -14.53,3.28 -1.84,1.03 -7.58,4.88 -8.19,7.16z"/>
 </g>
</svg>
